<?xml version="1.0" encoding="UTF-8" standalone="no"?>
<!-- Created with Inkscape (http://www.inkscape.org/) -->

<svg
   width="512"
   height="512"
   viewBox="0 0 512 512"
   version="1.1"
   id="svg1"
   xml:space="preserve"
   inkscape:export-filename="whatsapp.png"
   inkscape:export-xdpi="96"
   inkscape:export-ydpi="96"
   inkscape:version="1.4.2 (ebf0e940d0, 2025-05-08)"
   sodipodi:docname="Whatsapp.svg"
   xmlns:inkscape="http://www.inkscape.org/namespaces/inkscape"
   xmlns:sodipodi="http://sodipodi.sourceforge.net/DTD/sodipodi-0.dtd"
   xmlns="http://www.w3.org/2000/svg"
   xmlns:svg="http://www.w3.org/2000/svg"><sodipodi:namedview
     id="namedview1"
     pagecolor="#ffffff"
     bordercolor="#000000"
     borderopacity="0.25"
     inkscape:showpageshadow="2"
     inkscape:pageopacity="0.0"
     inkscape:pagecheckerboard="0"
     inkscape:deskcolor="#d1d1d1"
     inkscape:document-units="px"
     inkscape:zoom="1.5625"
     inkscape:cx="234.88"
     inkscape:cy="227.2"
     inkscape:window-width="1920"
     inkscape:window-height="1008"
     inkscape:window-x="0"
     inkscape:window-y="0"
     inkscape:window-maximized="1"
     inkscape:current-layer="layer2" /><defs
     id="defs1" /><g
     inkscape:groupmode="layer"
     id="layer2"
     inkscape:label="Layer 2"
     style="display:inline"><path
       id="path15"
       style="fill:#5c7e00;fill-opacity:1;stroke:#000000;stroke-width:1;stroke-dasharray:none;stroke-dashoffset:0;stroke-opacity:1"
       d="m 124.70616,382.80704 -17.41052,60.44703 62.46328,-16.80197 m -45.05276,-43.64506 a 182.39999,182.39999 0 0 1 27.9836,-244.97823 182.39999,182.39999 0 0 1 246.47923,6.73855 182.39999,182.39999 0 0 1 14.55677,246.14126 182.39999,182.39999 0 0 1 -243.96684,35.74348" /><path
       id="path15-6"
       style="display:inline;fill:#e4ff14;fill-opacity:1;stroke:#000000;stroke-width:1;stroke-dasharray:none;stroke-dashoffset:0;stroke-opacity:1"
       d="M 128.70052,368.93914 111.29,429.38617 173.75328,412.5842 m -45.05276,-43.64506 a 182.39999,182.39999 0 0 1 27.9836,-244.97823 182.39999,182.39999 0 0 1 246.47923,6.73855 182.39999,182.39999 0 0 1 14.55677,246.14126 182.39999,182.39999 0 0 1 -243.96684,35.74348" /></g><g
     inkscape:label="Layer 1"
     inkscape:groupmode="layer"
     id="layer1"
     style="display:inline"><path
       style="display:inline;opacity:1;fill:#ffffff;fill-opacity:1;stroke:#000000;stroke-width:1;stroke-dasharray:none;stroke-dashoffset:0;stroke-opacity:1"
       d="m 232.48908,245.9622 c 23.20167,41.69588 53.62371,57.6094 78.53086,67.54852 2.28104,1.00954 4.24209,0.63242 5.88313,-1.13137 6.53267,-8.22129 13.92127,-16.78475 19.80703,-24.66388 2.16747,-1.8919 4.82356,-2.74019 7.08313,-2.04784 18.81705,7.20385 32.28185,15.15006 49.36424,23.31761 2.98105,4.40519 4.53159,20.95189 -5.00549,32.42348 -14.2977,15.75878 -30.14487,21.50214 -46.63522,21.26977 -37.37293,-6.27147 -109.6564,-24.77982 -158.9576,-123.86569 -5.24596,-14.9455 -9.45628,-32.31448 -0.28256,-53.02776 7.42377,-15.17382 15.26317,-21.26371 21.4037,-24.08654 4.06416,-1.06469 14.57521,-1.25911 21.35546,-0.47029 3.37546,2.19287 5.80264,4.7691 8.02705,9.91488 5.91533,14.06286 11.76987,27.85257 16.86311,42.35445 0.93454,2.14671 0.48656,5.51572 -1.50392,8.34705 -1.71993,1.86448 -8.66864,11.79845 -15.69292,18.57958 -0.85333,1.23268 -1.09333,3.45202 -0.24,5.53803 z"
       id="path16"
       sodipodi:nodetypes="ccccccccccccccccc" /></g></svg>
